PathFileType	4	(X/Y/Z)	Patient4_TMGait_0pt5_02_right_37.trc.trc
DataRate	CameraRate	NumFrames	NumMarkers	Units	OrigDataRate	OrigDataStartFrame	OrigNumFrames
74.468085106383	74.468085106383	4	33	mm	74.468085106383	71	       141
Frame#	Time	Sacral			L.Shoulder			Chest			R.Shoulder			Neck			R.ASIS			L.ASIS			R.Thigh.Superior			R.Thigh.Lateral			R.Thigh.Inferior			R.Patella			L.Thigh.Superior			L.Thigh.Lateral			L.Thigh.Inferior			L.Patella			L.Shank.Superior			L.Shank.Lateral			L.Shank.Inferior			R.Shank.Superior			R.Shank.Lateral			R.Shank.Inferior			R.Heel			R.Midfoot.Superior			R.Midfoot.Lateral			R.Toe			L.Heel			L.Midfoot.Lateral			L.Midfoot.Superior			L.Toe			L.Elbow			L.Wrist			R.Elbow			R.Wrist			
		X1	Y1	Z1	X2	Y2	Z2	X3	Y3	Z3	X4	Y4	Z4	X5	Y5	Z5	X6	Y6	Z6	X7	Y7	Z7	X8	Y8	Z8	X9	Y9	Z9	X10	Y10	Z10	X11	Y11	Z11	X12	Y12	Z12	X13	Y13	Z13	X14	Y14	Z14	X15	Y15	Z15	X16	Y16	Z16	X17	Y17	Z17	X18	Y18	Z18	X19	Y19	Z19	X20	Y20	Z20	X21	Y21	Z21	X22	Y22	Z22	X23	Y23	Z23	X24	Y24	Z24	X25	Y25	Z25	X26	Y26	Z26	X27	Y27	Z27	X28	Y28	Z28	X29	Y29	Z29	X30	Y30	Z30	X31	Y31	Z31	X32	Y32	Z32	X33	Y33	Z33	

71	49.240000000000	757.239211231335	1010.606526910298	514.225798934164	924.484863129296	1430.874878112400	316.624912778909	1046.314869530798	1353.781904150411	459.493785679453	994.697307230383	1430.616083709810	644.090218534659	949.703700218850	1489.465202682128	466.097244287496	989.793709254183	934.754677493444	606.433097925147	950.777708316347	954.010514909018	334.362317662892	992.727028560902	724.912366297033	574.593781300369	898.445124267336	628.150307940780	641.325417083256	954.597770931816	565.554337722108	555.250410836140	938.325201364034	479.309176718975	558.529150288790	1023.219305199154	768.787707034420	365.577206439072	969.008180576167	641.756943042723	291.969585683110	1070.236704012421	580.243090871656	353.405696018643	1094.215431239390	513.163717935756	351.451118652930	1075.196883087035	441.309242945538	340.713921934763	1004.243298064672	314.764654001425	289.656192821622	1085.872776010427	212.414389883302	345.692667583643	901.086079396326	394.727469284602	566.667990192704	823.114774273180	299.000144394542	632.236083919956	845.728676180145	201.530661120825	564.661968050411	692.627361126736	44.986792550701	541.675667973494	866.413127532002	96.371122867960	567.911895718991	779.481334865257	36.781737852104	611.818515516127	987.092918346838	39.739877382361	590.398206472205	993.099788823925	39.493193900672	383.747530693370	1066.079906769751	41.749461135478	302.867168140808	1141.464466708306	112.843754253407	324.620129270427	1272.332940996762	75.508268145489	296.987843516441	774.071835144524	1107.025754249596	224.546131866963	736.386148360290	849.569711113593	225.413227315641	1147.107818057522	1131.251291842709	749.233475828827	1368.097191564214	1202.629546618262	652.569252119126	
72	49.253428571429	757.716380670928	1009.591430164026	511.636310555597	923.187978633082	1430.169037992566	313.947791268184	1045.047341288402	1354.000301012797	457.275940344292	992.256303695931	1430.551825035646	641.691367942083	947.636423288100	1489.037218931969	463.456023182934	990.113512890313	934.575030250651	605.013017638079	952.090856633079	952.866873600699	332.891480706665	991.582400250734	724.059361913439	573.975336384145	895.583810757538	628.154503680905	640.464724352751	951.289390775609	564.712719216054	554.925762137538	934.070247733564	478.650741308995	558.009090680560	1024.312539724999	766.828337283706	363.949839275357	967.496962479485	639.446314372353	292.112653569259	1069.526681178645	578.163352317525	352.473796413722	1092.178415642291	510.199261792064	351.446113116333	1072.311931258947	438.063229271198	341.020624498515	998.969439719830	312.529999160389	290.801958204603	1078.857036328436	209.032667416696	346.944817800148	896.255783910020	394.473512629524	566.260147789962	817.660453310850	299.365649773999	632.094805732505	839.718660866682	201.580436878090	564.642780894208	685.921886622945	45.419741295134	541.822443170889	859.812478252759	96.432374848625	568.055416789167	772.762698423168	36.922664298168	611.911737432309	980.329942975020	39.620379386189	590.459618948277	982.487178640456	39.038490954594	385.638276873264	1055.155454170787	39.727091266260	304.319715177929	1132.578012605695	108.471218972567	326.239199685367	1262.588216362133	67.566707243002	297.672196269284	774.534443928158	1105.448963002744	222.275129688938	738.035049285088	847.768309322937	223.931818306429	1145.111222749588	1130.784422565624	746.056062102513	1364.900485456584	1204.420094576438	648.508158437627	
73	49.266857142857	758.182700222672	1008.747850483138	508.959511840764	922.060156202231	1429.502772481403	311.119751278298	1043.918111711725	1354.261017643385	454.949179509756	989.936889764098	1430.603872105325	639.167824661590	945.743542022717	1488.698333064681	460.631622297440	990.404461794482	934.400778211039	603.486271883737	953.394403410535	951.913208411880	331.333709758007	990.494785882902	723.260892004816	573.301094102691	892.806828174315	628.230183793899	639.482276027072	948.156717524877	563.958415744717	554.486322133121	930.071398758152	478.016431771363	557.399708849849	1025.392724809852	765.133870827420	362.449419775865	966.420061076818	637.641107192014	291.980170010992	1068.971244000897	576.466811310086	351.664987215575	1090.281697153749	507.631569706913	351.458226873325	1069.677149252511	435.213154263680	341.201367908331	994.237995952645	310.690980780259	291.428233955277	1072.180507279064	206.053899246310	347.914103781687	891.624800938597	394.277694116850	565.773818234416	812.336804019575	299.858677047229	631.883596105470	833.816334233023	201.724877652385	564.604967188401	679.253934710486	46.050335296037	541.993569344510	853.283749293988	96.548818066589	568.225112844361	766.079050736280	37.170678491918	612.019044906892	973.593174680536	39.469580050675	590.529156857440	972.264333802266	38.716941710522	386.919871952984	1044.798484387401	38.095962019985	305.343311606840	1123.975079768279	104.722937278398	327.645054335501	1253.289979002512	60.658960917579	298.438112563544	775.571046939458	1103.704960929282	219.699209537534	740.875066411679	845.706292937915	222.055579750962	1142.220582762017	1129.902452619755	743.270378639667	1361.203420809425	1204.800153898900	644.906307950845	
74	49.280285714286	758.582165261304	1008.121552767317	506.219521442131	921.111078442628	1428.908367203830	308.177933305490	1042.938171617781	1354.556253206465	452.526364610941	987.813221081233	1430.787753687149	636.535981193188	944.075723591749	1488.470111668350	457.659605799357	990.605382100383	934.252627213606	601.826485612814	954.595195541340	951.199050749965	329.652416036829	989.453570965766	722.561256032941	572.494231887448	890.208469675245	628.372239525217	638.340129408697	945.302971002866	563.318189250884	553.869700579780	926.463295983714	477.390787042746	556.673062751337	1026.395304712567	763.829967087464	361.109583638809	965.853962398167	636.441009686220	291.519057386181	1068.576647030607	575.230662149447	350.957683598580	1088.563292338312	505.560879140551	351.420563824279	1067.348056690163	432.861312532329	341.206959624554	990.170499081984	309.314259580340	291.501476949028	1066.018117623908	203.601710181517	348.565369418623	887.300222902684	394.125305176351	565.184569156138	807.225684830655	300.485335945470	631.574264700597	828.070854699100	201.967294075001	564.531462822028	672.632350622079	46.925432975452	542.185516334880	846.842610903676	96.730455209746	568.415619206131	759.437602329385	37.552097369382	612.135925985709	966.890551658916	39.284489743841	590.604846001212	962.771287382501	38.527267201164	387.647699404390	1035.305372987396	36.899204781410	305.960603407265	1115.872759267717	101.764738619647	328.767834709475	1244.669488940502	55.114492055250	299.175958963298	777.179022290815	1101.839884243113	216.846902043120	744.888642721189	843.446526408614	219.776270677402	1138.481411636009	1128.641704746001	740.895043165343	1357.099796821144	1203.714076394104	641.789336211580	
